<?xml version="1.0" encoding="utf-8"?>
<!-- Generator: Adobe Illustrator 21.1.0, SVG Export Plug-In . SVG Version: 6.00 Build 0)  -->
<svg version="1.1" id="Laag_1" xmlns="http://www.w3.org/2000/svg" xmlns:xlink="http://www.w3.org/1999/xlink" x="0px" y="0px"
	 viewBox="0 0 1834 752" style="enable-background:new 0 0 1834 752;" xml:space="preserve">
<style type="text/css">
	.st0{font-family:'PARALLELS';}
	.st1{font-size:115px;}
</style>
<polygon points="297.5,128.1 217.2,299 365.9,299 345.2,343 196.5,343 86,578 37,578 272.3,77.5 273.7,77.5 273.7,77.5 317.5,76.1
	317.6,76.1 321.9,76.1 322,76.1 558,578 509,577.7 "/>
<polygon points="322,76 321.9,76.1 317.6,76.1 "/>
<polygon points="1813,76 1578,579 1534,579 1534,178.4 1346,578 1298,578 1533.3,76.6 1534,76.9 1534,76 1578,76 1578,472.6
	1764.4,75.9 "/>
<path d="M722.4,169.4C685.4,284,648.3,398.5,610.6,515l45.1,96h-48.6L336.8,35.9h48.6l199.4,424.3c45-96.5,90.2-192.9,135.3-289.3
	C720.4,170.2,720.9,169.6,722.4,169.4z"/>
<path d="M726.9,111.7c-0.1,9.4-8.2,17.4-17.6,17.3c-9.5-0.1-17.3-8.1-17.2-17.6c0.1-9.5,8-17.3,17.5-17.2S727,102.2,726.9,111.7z"/>
<path d="M746.8,101c-0.2-9.5,7.4-17.6,17-17.8c9.5-0.2,17.6,7.5,17.8,17c0.2,9.4-7.5,17.6-17,17.8C755.1,118.2,747,110.5,746.8,101z
	"/>
<path d="M765.5,175.7c8.3,131.2,16.6,262.3,24.9,394.3H738c8.3-131.7,16.6-263,24.9-394.2C763.8,175.7,764.6,175.7,765.5,175.7z"/>
<path d="M1194.2,35.9L923.9,611h-48.6l43.6-92.7c-37.5-115.9-74.4-229.8-111.2-343.7c0.7-0.3,1.3-0.6,2-1c1.6,3.2,3.3,6.4,4.9,9.7
	C858,276.5,901.3,369.6,945,462.7l200.6-426.8H1194.2z"/>
<path d="M818.6,128.9c-9.5-0.2-17.3-8.2-17.1-17.7c0.1-9.5,8.2-17.3,17.6-17.1c9.5,0.2,17.3,8.2,17.2,17.7
	C836.1,121.2,828,129.1,818.6,128.9z"/>
<polygon points="1244.1,120 1159.9,299 1315.9,299 1295.2,343 1139.3,343 1050,533 1286.3,533 1265.7,577 980.5,577 1001.2,533
	1001.4,533 1195.4,120 1217.5,77 1218,76 1500.8,76 1480.1,120 "/>
</svg>
